<svg xmlns="http://www.w3.org/2000/svg" version="1.1" viewBox="1.5667948722839355 1.7792856693267822 491.7926025390625 434.8373718261719" width="495.00" height="438.00">
    <path d="&#10;  M 475.57 411.03&#10;  Q 474.47 412.51 473.33 413.98&#10;  Q 472.22 415.41 470.70 416.52&#10;  Q 460.13 424.21 457.73 425.94&#10;  Q 454.70 428.11 451.06 429.43&#10;  Q 443.91 432.02 437.39 434.10&#10;  Q 431.44 436.01 425.69 436.44&#10;  Q 424.21 436.55 413.82 436.55&#10;  Q 242.79 436.65 71.75 436.60&#10;  Q 69.47 436.60 63.46 435.13&#10;  Q 50.06 431.87 46.67 430.87&#10;  Q 45.27 430.46 42.15 428.89&#10;  Q 32.57 424.09 22.81 414.54&#10;  Q 18.60 410.41 15.84 406.03&#10;  C 14.14 403.32 11.27 400.99 10.14 398.27&#10;  C 8.74 394.88 7.96 391.56 6.19 387.94&#10;  Q 4.39 384.26 3.41 378.86&#10;  Q 2.72 375.08 2.15 370.47&#10;  Q 1.69 366.85 1.69 362.01&#10;  Q 1.38 162.78 1.85 75.34&#10;  Q 1.91 65.49 4.93 54.22&#10;  Q 6.03 50.15 7.96 46.90&#10;  Q 9.71 43.98 12.26 37.79&#10;  C 13.22 35.47 15.89 32.13 17.91 30.01&#10;  Q 22.19 25.49 26.39 20.89&#10;  Q 29.22 17.78 34.10 14.85&#10;  Q 43.49 9.20 49.24 6.96&#10;  Q 52.20 5.81 59.20 4.07&#10;  Q 65.07 2.61 69.43 2.59&#10;  Q 71.97 2.58 77.62 1.90&#10;  Q 78.68 1.77 85.87 1.78&#10;  Q 280.10 2.00 410.86 1.79&#10;  Q 428.55 1.77 443.60 6.29&#10;  Q 451.21 8.58 458.49 14.11&#10;  C 461.40 16.32 465.03 18.43 467.12 19.71&#10;  Q 469.27 21.04 472.89 25.58&#10;  Q 481.05 35.81 483.10 38.90&#10;  Q 486.38 43.85 489.08 51.83&#10;  Q 491.19 58.09 492.46 66.70&#10;  Q 493.15 71.39 493.17 81.86&#10;  Q 493.42 177.55 493.34 361.33&#10;  Q 493.33 367.04 492.84 371.14&#10;  Q 491.99 378.12 491.07 380.83&#10;  Q 488.29 389.04 486.84 394.81&#10;  Q 486.25 397.19 482.16 402.16&#10;  Q 482.15 402.16 475.57 411.03&#10;  Z&#10;  M 316.93 196.43&#10;  L 261.07 196.41&#10;  A 2.86 2.84 -12.3 0 1 258.48 194.76&#10;  C 256.59 190.65 254.05 187.34 252.34 183.11&#10;  Q 249.81 176.86 245.78 170.71&#10;  Q 243.76 167.61 241.78 163.86&#10;  Q 238.95 158.48 237.90 156.93&#10;  Q 235.99 154.12 234.49 150.05&#10;  Q 232.61 144.93 229.93 141.12&#10;  Q 226.67 136.49 224.97 133.15&#10;  Q 222.91 129.14 220.34 125.00&#10;  C 218.81 122.53 217.33 118.87 216.41 116.87&#10;  Q 215.02 113.82 213.28 110.84&#10;  Q 207.75 101.34 206.54 99.48&#10;  Q 203.48 94.79 200.30 87.87&#10;  Q 196.59 79.80 191.16 71.39&#10;  Q 190.88 70.96 190.39 70.84&#10;  Q 189.66 70.68 188.37 70.67&#10;  Q 161.06 70.58 143.10 70.84&#10;  A 1.09 1.09 0.0 0 0 142.23 72.57&#10;  Q 147.38 79.69 150.67 86.85&#10;  C 153.22 92.42 155.61 95.97 158.88 101.94&#10;  Q 159.20 102.51 163.67 109.64&#10;  Q 166.42 114.03 168.28 119.70&#10;  Q 168.94 121.72 171.94 126.01&#10;  Q 173.92 128.85 175.52 132.03&#10;  Q 178.78 138.52 182.00 143.18&#10;  C 183.52 145.39 184.79 148.72 185.95 151.46&#10;  Q 187.07 154.08 189.13 157.59&#10;  Q 197.84 172.43 200.00 175.87&#10;  Q 202.41 179.70 203.96 184.01&#10;  C 205.94 189.53 210.10 194.60 212.79 200.10&#10;  Q 215.32 205.26 217.23 207.94&#10;  Q 219.00 210.44 220.85 215.05&#10;  Q 222.41 218.95 225.25 223.31&#10;  Q 228.62 228.50 229.97 231.42&#10;  Q 232.46 236.78 239.89 250.62&#10;  Q 242.96 256.34 245.49 259.78&#10;  Q 246.76 261.51 248.84 267.89&#10;  Q 249.22 269.07 252.53 274.41&#10;  C 254.53 277.63 256.44 281.93 257.86 284.13&#10;  Q 261.43 289.64 263.58 294.68&#10;  Q 266.26 300.97 267.42 303.07&#10;  Q 271.22 309.90 276.57 318.96&#10;  Q 279.15 323.33 280.24 326.76&#10;  Q 281.23 329.89 282.98 332.30&#10;  Q 285.02 335.11 287.11 339.64&#10;  Q 288.08 341.75 291.00 346.89&#10;  Q 298.86 360.76 299.34 362.17&#10;  Q 300.81 366.43 302.62 369.46&#10;  A 1.47 1.47 0.0 0 0 305.11 369.53&#10;  Q 305.58 368.82 306.40 367.13&#10;  Q 310.98 357.65 314.42 348.98&#10;  C 316.63 343.40 319.24 338.35 321.80 332.84&#10;  Q 322.21 331.96 327.74 320.97&#10;  Q 331.17 314.16 333.82 306.10&#10;  Q 333.96 305.66 333.76 305.24&#10;  C 332.27 302.04 329.89 299.01 328.58 296.20&#10;  Q 326.23 291.17 323.03 285.87&#10;  Q 322.00 284.17 319.43 278.92&#10;  Q 317.81 275.62 315.33 272.13&#10;  Q 313.51 269.56 312.45 266.47&#10;  Q 310.40 260.46 304.51 251.93&#10;  A 0.95 0.95 0.0 0 1 305.20 250.44&#10;  Q 308.53 250.11 312.51 250.15&#10;  Q 326.14 250.27 354.14 250.45&#10;  Q 358.13 250.48 360.75 249.63&#10;  C 365.28 248.16 368.48 245.36 372.63 242.01&#10;  C 375.12 240.00 376.32 238.19 377.05 235.29&#10;  Q 378.40 229.93 378.67 228.64&#10;  Q 379.53 224.55 379.47 221.90&#10;  Q 379.30 215.03 376.15 208.24&#10;  Q 371.71 198.66 366.28 191.41&#10;  Q 365.23 190.00 363.29 184.10&#10;  Q 362.69 182.29 357.69 174.46&#10;  Q 355.29 170.71 353.34 166.85&#10;  Q 349.68 159.58 348.31 157.46&#10;  C 345.63 153.32 344.15 148.22 341.47 143.74&#10;  Q 336.72 135.79 336.67 135.70&#10;  Q 332.65 128.38 331.82 127.13&#10;  Q 329.52 123.65 327.36 118.39&#10;  Q 325.73 114.44 322.69 109.48&#10;  Q 319.94 105.01 317.68 100.78&#10;  Q 311.32 88.86 305.59 78.59&#10;  C 304.11 75.95 303.30 73.53 302.06 71.42&#10;  A 1.90 1.87 -14.7 0 0 300.42 70.48&#10;  L 250.21 70.45&#10;  A 0.69 0.69 0.0 0 0 249.57 71.39&#10;  C 250.40 73.51 251.42 75.94 252.99 77.79&#10;  Q 256.30 81.67 257.93 85.87&#10;  Q 258.85 88.23 260.92 91.16&#10;  Q 265.01 96.92 265.71 98.56&#10;  C 268.53 105.17 272.24 111.07 275.62 117.61&#10;  C 278.07 122.33 281.69 127.14 283.59 131.75&#10;  Q 285.66 136.76 287.41 139.53&#10;  Q 288.50 141.26 292.95 148.94&#10;  C 294.04 150.83 294.71 152.55 295.46 154.71&#10;  C 296.51 157.71 298.65 160.54 300.40 163.30&#10;  Q 301.43 164.90 302.81 167.90&#10;  Q 305.99 174.77 309.72 180.03&#10;  Q 310.09 180.54 312.28 185.83&#10;  Q 313.44 188.60 314.78 190.77&#10;  Q 316.37 193.35 317.33 195.82&#10;  A 0.45 0.44 79.0 0 1 316.93 196.43&#10;  Z&#10;  M 127.50 154.22&#10;  C 126.97 154.80 126.51 154.81 126.20 155.66&#10;  Q 124.52 160.23 123.54 167.72&#10;  Q 123.13 170.79 122.12 173.15&#10;  Q 121.57 174.43 120.39 178.55&#10;  Q 118.13 186.43 116.59 190.36&#10;  Q 116.24 191.24 115.67 193.78&#10;  Q 115.28 195.50 114.65 197.17&#10;  Q 113.04 201.38 111.09 208.97&#10;  Q 110.04 213.07 109.53 214.33&#10;  Q 108.92 215.83 109.31 217.39&#10;  Q 109.95 219.91 110.27 220.41&#10;  Q 121.78 238.80 123.22 242.29&#10;  Q 127.06 251.64 132.55 260.11&#10;  C 135.07 264.01 136.05 268.06 138.57 271.81&#10;  Q 140.66 274.92 142.81 279.44&#10;  C 144.71 283.45 146.24 285.81 149.04 290.53&#10;  Q 150.71 293.36 152.54 297.88&#10;  Q 154.22 302.03 156.16 304.97&#10;  C 159.30 309.70 161.18 314.54 164.19 318.73&#10;  C 166.31 321.68 167.28 325.63 168.81 328.49&#10;  Q 174.46 339.00 178.82 346.04&#10;  Q 182.67 352.25 185.57 358.66&#10;  Q 188.62 365.40 192.78 372.46&#10;  Q 194.53 375.43 197.99 375.43&#10;  Q 237.06 375.45 247.45 375.45&#10;  A 0.87 0.86 7.3 0 0 248.29 374.81&#10;  Q 248.41 374.39 247.93 373.57&#10;  Q 239.75 359.45 234.50 350.56&#10;  C 232.99 348.00 232.25 345.98 231.18 343.13&#10;  C 229.58 338.92 227.04 334.94 224.81 331.82&#10;  Q 223.44 329.90 221.42 325.78&#10;  Q 218.39 319.57 210.38 304.94&#10;  Q 210.35 304.89 208.40 301.73&#10;  Q 206.67 298.92 204.94 294.59&#10;  Q 203.45 290.88 198.05 282.68&#10;  Q 197.57 281.95 195.92 278.48&#10;  Q 194.87 276.27 193.66 274.35&#10;  Q 189.52 267.81 189.23 266.98&#10;  Q 187.26 261.49 182.47 252.92&#10;  Q 177.92 244.78 174.10 238.45&#10;  C 172.29 235.44 170.67 232.11 169.36 228.81&#10;  C 167.87 225.03 164.38 220.30 162.55 216.49&#10;  Q 160.95 213.15 159.64 211.16&#10;  Q 155.29 204.55 152.84 198.71&#10;  Q 151.09 194.54 147.37 188.52&#10;  Q 140.60 177.54 137.86 172.13&#10;  Q 137.10 170.62 134.90 165.65&#10;  C 133.15 161.69 130.10 157.75 128.28 154.32&#10;  Q 127.96 153.72 127.50 154.22&#10;  Z"/>
</svg>
